<svg xmlns="http://www.w3.org/2000/svg" xmlns:xlink="http://www.w3.org/1999/xlink" width="500" zoomAndPan="magnify" viewBox="0 0 375 374.999991" height="500" preserveAspectRatio="xMidYMid meet" version="1.0"><path fill="#edf6fd" d="M 312.554688 127.238281 C 308.332031 118.964844 300.695312 115.894531 291.433594 114.601562 C 286.691406 113.945312 272.863281 115.917969 268.898438 126.316406 L 268.789062 126.347656 C 267.628906 122.839844 266.273438 119.222656 264.703125 115.503906 C 264.703125 115.503906 262.6875 102.179688 258.023438 89.195312 C 253.679688 77.160156 246.933594 65.582031 240.476562 61.375 C 238.683594 60.203125 230.023438 62.152344 221.4375 67.753906 C 211.996094 73.898438 202.46875 83.808594 197.992188 83.082031 C 182.78125 80.621094 173.976562 84.988281 170.023438 80.757812 C 163.332031 73.574219 148.246094 49.683594 137.257812 50.605469 C 133.207031 50.953125 118.144531 71.75 113.289062 89.453125 C 111.964844 94.261719 107.289062 111.195312 106.019531 116.003906 C 103.546875 125.355469 91.234375 148.714844 90.410156 169.109375 C 88.828125 208.167969 101.164062 221.191406 109.203125 226.882812 L 109.3125 227.304688 C 102.554688 229.074219 97.847656 231.992188 97.945312 235.175781 C 96.832031 235.054688 95.707031 235.085938 94.605469 235.296875 L 94.238281 235.296875 C 64.191406 237.792969 63.878906 266.015625 68.042969 274.296875 C 72.875 283.90625 74.355469 283.25 77.082031 284.996094 L 77.371094 284.851562 C 78.808594 285.242188 80.234375 285.429688 81.636719 285.453125 L 81.613281 286.132812 C 81.726562 286.601562 81.847656 287.125 81.960938 287.703125 L 81.738281 287.746094 C 76.425781 295.785156 74.554688 320.289062 74.355469 327.78125 C 73.230469 370.535156 83.773438 397.019531 90.898438 409.65625 C 92.503906 412.496094 94.40625 416.425781 95.351562 420.101562 C 95.355469 420.109375 95.355469 420.117188 95.359375 420.125 C 95.339844 420.300781 95.316406 420.480469 95.296875 420.65625 C 95.324219 420.519531 95.359375 420.382812 95.386719 420.25 C 95.679688 421.421875 95.867188 422.570312 95.921875 423.640625 C 96.34375 432.867188 99.527344 435.417969 102.710938 436.933594 C 112.742188 441.675781 142.96875 439.449219 152.132812 434.339844 C 154.960938 432.757812 156.886719 430.574219 159.148438 428.972656 C 159.148438 428.972656 159.148438 428.972656 159.148438 428.96875 C 159.148438 428.972656 159.148438 428.972656 159.148438 428.972656 C 159.148438 428.972656 159.148438 428.972656 159.148438 428.96875 C 160.640625 427.890625 162.277344 427.078125 164.402344 426.832031 C 178.285156 425.320312 229.652344 422.980469 234.820312 424.117188 C 235.210938 424.207031 235.621094 424.316406 236.042969 424.460938 C 240.21875 425.820312 246.511719 429.414062 259.804688 429.039062 C 264.601562 428.894531 279.609375 425.632812 282.539062 421.65625 C 288.894531 413.0625 287.46875 404.542969 288.105469 398.144531 C 288.125 397.832031 288.160156 397.519531 288.203125 397.21875 C 289.851562 385.160156 305.773438 370.5 302.800781 326.46875 C 301.945312 313.699219 281.804688 265.734375 281.847656 258.832031 C 282.015625 234.425781 302.289062 191.585938 303.878906 183.738281 C 305.359375 176.425781 320.96875 143.75 312.554688 127.238281 Z M 312.554688 127.238281 " fill-opacity="1" fill-rule="nonzero"/><path fill="#bf983e" d="M 201.496094 252.199219 C 191.601562 250.839844 182.480469 257.742188 181.125 267.597656 C 179.777344 277.460938 186.710938 286.558594 196.609375 287.914062 C 206.507812 289.261719 215.625 282.371094 216.972656 272.507812 C 218.332031 262.652344 211.394531 253.558594 201.496094 252.199219 Z M 159.503906 253.058594 C 158.042969 246.621094 155.796875 240.519531 151.578125 235.710938 C 150.207031 234.128906 148.613281 232.695312 146.765625 231.425781 C 136.757812 224.542969 120.3125 224.421875 109.3125 227.304688 C 102.554688 229.074219 97.847656 231.992188 97.945312 235.175781 C 102.914062 235.722656 107.644531 239.363281 109.234375 243.605469 C 111.105469 248.59375 110.015625 255.375 108.335938 261.019531 C 107.121094 265.09375 105.585938 268.578125 104.636719 270.324219 C 101.066406 276.992188 91.902344 285.65625 81.636719 285.457031 L 81.613281 286.132812 C 81.726562 286.601562 81.847656 287.125 81.960938 287.703125 C 84.53125 300.398438 87.460938 338.382812 92.035156 348.757812 C 96.800781 359.546875 98.269531 365.4375 110.894531 375.125 C 120.09375 382.183594 136.46875 381.035156 147.589844 377.25 C 162.230469 372.261719 169.101562 350.773438 169.390625 337.714844 C 169.667969 325.648438 163.488281 276.015625 162.65625 271.339844 C 161.605469 265.492188 160.90625 259.125 159.503906 253.058594 Z M 272.027344 195.308594 C 278.082031 172.667969 277.296875 148.25 268.785156 126.347656 C 274.484375 146.109375 275.742188 167.066406 271.566406 187.25 C 269.976562 197.347656 266.042969 206.914062 259.746094 214.996094 C 253.519531 223.082031 245.457031 229.703125 236.65625 235.089844 C 252.84375 227.105469 267.148438 213.144531 272.027344 195.308594 Z M 271.742188 378.878906 C 258.867188 373.242188 241.882812 378.324219 234.984375 390.78125 C 231.601562 397.480469 231.144531 405.292969 231.78125 412.625 C 232.164062 415.753906 232.699219 418.933594 234.089844 421.789062 C 234.578125 422.710938 235.214844 423.644531 236.167969 424.109375 C 235.277344 423.546875 234.773438 422.589844 234.398438 421.648438 C 233.277344 418.761719 232.996094 415.621094 232.871094 412.550781 C 232.757812 404.617188 233.53125 395.742188 238.425781 389.292969 C 245.84375 379.765625 259.851562 376.128906 271.078125 380.480469 C 278.859375 383.445312 284.3125 390.328125 287.125 398.046875 C 285.136719 389.871094 279.667969 382.21875 271.742188 378.878906 Z M 142.917969 395.128906 C 139.207031 392.492188 135.574219 389.976562 130.898438 389.101562 C 126.402344 388.765625 121.921875 389.042969 117.617188 390.414062 C 104.59375 394.335938 96.613281 407.695312 95.296875 420.660156 C 97.871094 408.429688 105.6875 395.964844 118.230469 392.421875 C 122.214844 391.222656 126.535156 390.960938 130.652344 391.3125 C 134.53125 391.996094 138.394531 394.53125 141.664062 396.824219 C 151.820312 404.136719 160.683594 416.015625 159.148438 428.976562 C 162.082031 415.613281 153.191406 402.84375 142.917969 395.128906 Z M 142.917969 395.128906 " fill-opacity="1" fill-rule="nonzero"/><path fill="#ff6701" d="M 239.460938 232.949219 C 239.285156 233.027344 239.105469 233.09375 238.917969 233.171875 C 218.921875 241.320312 172.105469 248.78125 151.632812 235.667969 L 151.578125 235.710938 C 155.796875 240.519531 158.046875 246.621094 159.503906 253.058594 C 165.316406 257.542969 182.460938 260.09375 190.964844 260.160156 C 206.0625 260.28125 234.351562 251.675781 240.699219 248.902344 C 252.332031 243.828125 253.046875 227.261719 239.460938 232.949219 Z M 152.34375 84.042969 C 156.429688 83.363281 163.710938 83.074219 164.035156 81.714844 C 164.367188 80.355469 160.503906 77.605469 159.058594 76.046875 C 157.230469 74.066406 147.8125 57.300781 142.292969 56.265625 C 138.851562 55.617188 135.867188 59.25 133.683594 61.964844 C 130.234375 66.273438 122.539062 85.777344 121.394531 90.5 C 121.039062 91.980469 119.289062 97.179688 120.816406 98.335938 C 122.015625 99.25 136.078125 86.757812 152.34375 84.042969 Z M 212.085938 93.039062 C 214.066406 93.851562 223.777344 94.664062 232.003906 99.082031 C 236.054688 101.253906 241.511719 109.257812 245.0625 112.054688 C 247.980469 114.359375 251.050781 116.652344 254.972656 116.460938 C 257.710938 116.339844 255.550781 104.292969 254.292969 98.683594 C 253.367188 94.574219 250.851562 87.214844 248.859375 83.507812 C 247.65625 81.269531 240.242188 68.84375 235.6875 69.300781 C 231.46875 69.734375 221.582031 76.816406 219.175781 78.484375 C 217.417969 79.699219 209.714844 85.5 208.332031 86.980469 C 206.964844 88.449219 208.234375 91.433594 212.085938 93.039062 Z M 88.792969 255.214844 C 91.988281 261.214844 99.996094 263.179688 106.277344 261.933594 C 107.191406 261.703125 108.144531 261.46875 108.957031 260.90625 C 107.101562 260.546875 105.410156 260.058594 103.703125 259.679688 C 98.722656 258.496094 93.539062 257.292969 88.792969 255.214844 Z M 112.785156 419.398438 C 110.386719 423.664062 110.589844 428.769531 111.492188 433.402344 C 111.847656 434.941406 112.316406 436.464844 113.121094 437.957031 C 114.195312 434.871094 114.324219 431.785156 114.238281 428.617188 C 114.105469 425.449219 113.664062 422.523438 112.785156 419.398438 Z M 82.484375 266.09375 C 85.683594 272.097656 93.675781 274.058594 99.964844 272.8125 C 100.882812 272.582031 101.828125 272.335938 102.644531 271.785156 C 100.789062 271.421875 99.097656 270.9375 97.386719 270.558594 C 92.402344 269.382812 87.230469 268.167969 82.484375 266.09375 Z M 177.628906 165.328125 C 179.519531 163.890625 180.988281 161.996094 182.183594 159.945312 C 182.300781 161.730469 182.570312 163.542969 183.09375 165.160156 C 184.75 171.035156 190.953125 175.667969 197.136719 174.644531 C 200.09375 174.089844 202.726562 172.429688 204.328125 170.101562 C 197.894531 175.871094 188.105469 172.402344 186.125 164.253906 C 185.234375 161.214844 185.40625 157.65625 185.542969 154.382812 C 185.53125 153.714844 185.605469 152.992188 185.128906 152.285156 C 187.515625 151.890625 193.492188 148.972656 194.027344 147.902344 C 195.507812 144.929688 188.917969 143.09375 186.890625 142.816406 C 183.851562 142.402344 178.988281 142.058594 178.195312 145.0625 C 177.667969 147.035156 180.914062 150.226562 183.054688 151.628906 C 182.78125 151.726562 182.53125 151.886719 182.34375 152.125 C 181.347656 153.585938 180.980469 155.511719 180.238281 156.976562 C 177.105469 164.742188 169.414062 169.347656 161.175781 166.628906 C 166.230469 169.8125 173.0625 169.199219 177.628906 165.328125 Z M 246.710938 197.613281 C 243.011719 190.796875 238.398438 184.664062 232.28125 179.832031 C 233.765625 186.089844 240.738281 195.140625 246.710938 197.613281 Z M 124.621094 422.503906 C 124.414062 427.90625 125.113281 433.042969 125.324219 438.460938 C 129.296875 433.878906 128.773438 421.488281 124.722656 417.09375 C 124.867188 418.703125 124.628906 420.894531 124.621094 422.503906 Z M 127.183594 181.59375 C 124 179.179688 120.203125 178.144531 116.417969 177.300781 C 112.59375 176.625 108.691406 176.066406 104.828125 177.128906 C 111.925781 180.21875 119.433594 181.765625 127.183594 181.59375 Z M 97.078125 279.210938 C 91.257812 276.632812 85.21875 277.003906 79.140625 275.503906 C 82.355469 280.9375 91.753906 281.417969 97.078125 279.210938 Z M 135.453125 164.8125 C 129.648438 161.46875 123.3125 159.601562 116.617188 159.292969 C 121.378906 163.8125 129.007812 166.023438 135.453125 164.8125 Z M 278.386719 117.988281 C 279.660156 121.3125 280.769531 124.191406 281.292969 127.589844 C 281.921875 130.96875 281.734375 134.246094 282.347656 137.769531 C 286.503906 131.578125 285.371094 121.625 278.386719 117.988281 Z M 273.351562 402.910156 C 274.429688 404.671875 274.605469 406.546875 274.835938 408.503906 C 275.207031 413.242188 275.363281 418.121094 274.546875 422.8125 C 274.347656 423.746094 274.089844 424.640625 273.351562 425.421875 C 273.894531 425.375 274.417969 425.097656 274.878906 424.753906 C 279.964844 420.34375 279.84375 405.953125 273.351562 402.910156 Z M 308.410156 122.441406 C 309.058594 125.550781 308.226562 128.140625 307.691406 131.101562 C 307.359375 132.609375 306.609375 136.113281 306.226562 137.558594 C 306.027344 138.292969 305.84375 138.996094 305.4375 139.753906 C 307.125 139.332031 308.285156 137.785156 309.175781 136.402344 C 311.476562 132.476562 312.796875 125.398438 308.410156 122.441406 Z M 261.574219 416.03125 C 261.078125 420.089844 261.082031 424.242188 259.746094 428.152344 C 265.914062 423.5625 266.519531 409.6875 262.21875 403.65625 C 262.140625 407.933594 261.941406 411.855469 261.574219 416.03125 Z M 133.140625 175.035156 C 127.09375 170.707031 120.335938 166.8125 112.742188 166.550781 C 118.625 171.101562 125.527344 175.011719 133.140625 175.035156 Z M 293.558594 115.347656 C 294.613281 118.523438 294.550781 122.808594 294.820312 126.066406 C 295.070312 129.667969 295.285156 133.292969 296.199219 137.113281 C 299.085938 131.203125 299.464844 119.511719 293.558594 115.347656 Z M 254.957031 166.40625 C 250.515625 163.125 244.359375 161.148438 238.984375 163.1875 C 243.589844 164.742188 249.164062 166.863281 253.65625 168.691406 C 255.289062 169.324219 256.929688 169.976562 258.765625 170.535156 C 257.789062 168.878906 256.4375 167.546875 254.957031 166.40625 Z M 245.886719 404.191406 C 240.414062 410.472656 241.34375 419.699219 244.90625 426.667969 C 245.9375 423 245.117188 419.0625 245.3125 415.34375 C 245.289062 411.558594 245.722656 408.070312 245.886719 404.191406 Z M 139.183594 436.8125 C 146.753906 432.644531 145.421875 420.382812 140.332031 414.703125 C 140.742188 422.039062 142.488281 429.878906 139.183594 436.8125 Z M 236.089844 172.0625 C 242.050781 176.984375 248.808594 180.128906 255.648438 183.59375 C 253.242188 177.589844 242.363281 171.976562 236.089844 172.0625 Z M 236.089844 172.0625 " fill-opacity="1" fill-rule="nonzero"/><path fill="#2b2b3c" d="M 244.253906 150.132812 C 238.941406 139.410156 219.835938 137.121094 211.574219 145.386719 C 220.375 143.480469 229.320312 144.40625 237.605469 147.566406 C 240.257812 148.679688 242.769531 150.085938 244.953125 152.488281 C 244.773438 151.726562 244.609375 150.878906 244.253906 150.132812 Z M 156.375 142.171875 C 145.667969 137.648438 132.925781 140.441406 123.710938 146.988281 C 127.429688 146.398438 130.992188 145.828125 134.550781 145.332031 C 141.558594 144.265625 148.402344 143.871094 155.269531 145.480469 C 158.605469 146.34375 162.125 147.328125 164.347656 150.230469 C 163.742188 146.253906 159.765625 143.707031 156.375 142.171875 Z M 105.964844 277.847656 C 106 277.867188 106.019531 277.894531 106.027344 277.914062 C 106.058594 277.921875 106.121094 277.925781 106.164062 277.929688 L 106.453125 277.96875 L 107.050781 278.019531 C 109.730469 278.234375 112.492188 278.066406 115.117188 277.59375 C 116.292969 277.414062 117.421875 277.066406 118.527344 276.652344 C 118.828125 281.140625 119.300781 286.894531 119.4375 290.949219 C 120.203125 292.976562 121.507812 283.808594 121.710938 283.117188 C 122.050781 281.140625 122.613281 277.128906 122.828125 275.132812 C 122.835938 275.039062 122.851562 274.949219 122.859375 274.855469 C 123.117188 274.753906 123.371094 274.648438 123.625 274.554688 C 125.753906 273.769531 129.988281 272.113281 132.085938 271.25 C 134.882812 270.0625 137.695312 268.9375 140.429688 267.511719 C 140.726562 267.367188 140.535156 266.910156 140.230469 266.992188 C 134.867188 267.996094 128.972656 268.941406 123.535156 270.042969 C 123.632812 269.0625 123.660156 268.078125 123.53125 267.09375 C 123.304688 264.714844 122.636719 262.34375 121.539062 260.027344 C 123.46875 258.710938 125.492188 257.46875 127.171875 255.828125 C 129.054688 253.550781 130.28125 250.207031 129.136719 247.332031 C 129.054688 247.140625 128.808594 247.070312 128.640625 247.191406 C 128.0625 247.582031 127.671875 247.96875 127.21875 248.285156 C 126.09375 249.125 124.8125 250.0625 123.796875 251 C 122.28125 252.234375 121.492188 254.125 120.210938 255.59375 C 117.53125 258.703125 114.707031 261.675781 111.722656 264.515625 C 110.957031 266.003906 116.238281 263.199219 119 261.628906 C 118.417969 263.476562 118.082031 265.292969 117.886719 267.121094 C 117.726562 268.417969 117.828125 269.71875 117.980469 271.023438 C 114.976562 271.648438 112.066406 272.578125 109.429688 274.328125 C 108.035156 275.214844 106.554688 276.199219 105.515625 277.515625 C 105.492188 277.554688 105.507812 277.609375 105.546875 277.628906 Z M 115.699219 304.808594 C 114.535156 306.847656 114.28125 309.246094 113.464844 311.421875 C 111.730469 315.714844 110.066406 320.308594 106.640625 323.566406 C 106.382812 323.753906 106.617188 324.167969 106.910156 324.054688 C 110.488281 322.589844 113.039062 319.496094 115.347656 316.535156 C 116.816406 314.476562 118.128906 312.339844 119.507812 310.210938 C 120.035156 309.300781 120.457031 308.3125 120.769531 307.292969 C 121.46875 307.21875 122.171875 307.171875 122.804688 307.070312 C 126.253906 306.804688 130.351562 306.457031 133.527344 306.941406 C 133.613281 306.953125 133.597656 306.949219 133.640625 306.925781 C 133.679688 306.964844 133.746094 306.960938 133.8125 307.058594 C 134.121094 307.347656 134.421875 308.09375 134.597656 308.867188 C 135.285156 312.199219 135.0625 316.171875 134.371094 319.5625 C 134.179688 320.492188 133.925781 321.398438 133.554688 322.007812 C 131.660156 321.753906 128.972656 320.445312 126.960938 319.46875 C 126.675781 319.308594 126.386719 319.722656 126.648438 319.929688 C 128.167969 321.1875 129.753906 322.320312 131.535156 323.285156 C 132.214844 323.617188 132.984375 324.078125 133.789062 324.121094 C 135.625 324.003906 136.433594 321.660156 137.027344 320.402344 C 138.910156 315.246094 141.628906 303.875 134.363281 301.523438 C 129.78125 300.191406 125.226562 301.234375 121.355469 303.507812 C 121.363281 302.492188 121.25 301.480469 121 300.496094 C 127.875 298.46875 135.226562 296.164062 141.894531 293.75 C 142.207031 293.640625 142.066406 293.15625 141.753906 293.210938 C 135.292969 294.070312 125.292969 295.40625 118.933594 296.472656 C 111.117188 297.253906 103.664062 298.820312 96.90625 303.261719 C 96.679688 303.394531 96.75 303.761719 97.007812 303.808594 C 104.058594 305.136719 111.003906 303.765625 117.675781 301.578125 C 116.9375 302.644531 116.296875 303.699219 115.699219 304.808594 Z M 142.554688 343.796875 C 142.726562 343.136719 142.390625 342.433594 141.742188 342.167969 C 141.269531 341.953125 140.667969 341.867188 140.191406 341.847656 C 136.324219 341.789062 132.503906 342.339844 128.699219 342.933594 C 128.65625 342.429688 128.566406 341.925781 128.398438 341.429688 C 127.988281 340.105469 127.40625 338.828125 126.5625 337.5625 C 131.5 336.503906 138.769531 334.925781 142.691406 334.0625 C 143.019531 334.023438 142.988281 333.523438 142.671875 333.507812 C 139.457031 333.289062 136.292969 333.320312 133.105469 333.324219 C 130.730469 333.34375 125.941406 333.515625 123.570312 333.664062 C 118.703125 333.710938 113.820312 333.945312 109.421875 336.34375 C 107.886719 337.214844 106.082031 338.0625 105.277344 339.773438 C 105.207031 339.949219 105.371094 340.144531 105.558594 340.113281 C 106.316406 339.992188 107.136719 340.050781 107.984375 340.085938 C 110.25 340.1875 112.761719 340.234375 115.003906 340.050781 C 117.96875 339.910156 120.785156 338.863281 123.65625 338.195312 C 123.492188 338.632812 123.375 338.996094 123.347656 339.113281 C 122.796875 340.726562 122.785156 342.285156 123.046875 343.820312 C 119.976562 344.292969 115.722656 344.925781 113.761719 345.496094 C 112.449219 345.867188 110.703125 346.3125 109.503906 346.964844 C 108.046875 347.707031 107.46875 349.582031 108.441406 350.949219 C 109.578125 352.648438 111.5 355.84375 112.628906 357.71875 C 113.996094 360.078125 115.574219 362.363281 116.605469 364.890625 C 116.664062 365.175781 117.105469 365.175781 117.164062 364.894531 C 117.734375 361.929688 116.976562 359.003906 116.285156 356.175781 C 115.804688 354.429688 115.308594 352.84375 114.679688 351.253906 C 117.921875 350.363281 121.128906 349.308594 124.363281 348.386719 C 124.777344 349.882812 125.472656 352.191406 125.867188 353.40625 C 125.867188 353.40625 127.542969 358.386719 127.710938 358.886719 C 126.058594 357.996094 124.433594 357.535156 121.878906 357.125 C 121.65625 357.097656 121.460938 357.273438 121.464844 357.496094 C 121.546875 360.910156 123.488281 363.960938 126.925781 364.644531 C 131.683594 365.453125 135.84375 361.1875 136.324219 356.867188 C 136.429688 355.890625 136.347656 354.910156 136.074219 354.023438 C 136.046875 353.929688 135.964844 353.851562 135.859375 353.828125 C 135.703125 353.796875 135.554688 353.898438 135.523438 354.054688 C 135.03125 356.476562 133.46875 358.300781 131.414062 359.335938 C 130.5625 359.738281 129.511719 360.21875 128.824219 359.59375 C 128.824219 359.59375 128.574219 359.386719 128.574219 359.386719 C 128.421875 359.292969 128.277344 359.210938 128.125 359.121094 C 128.207031 359.085938 128.273438 359.015625 128.28125 358.910156 C 128.699219 355.109375 128.667969 351.074219 128.613281 347.265625 C 132.296875 346.332031 136.191406 345.402344 139.679688 344.933594 C 139.789062 347.453125 140.460938 349.898438 140.921875 352.371094 C 141.398438 354.527344 142.40625 358.828125 142.953125 360.96875 C 143.027344 361.292969 143.527344 361.207031 143.5 360.878906 C 143.15625 356.476562 142.597656 352.140625 142.417969 347.753906 C 142.390625 346.527344 142.308594 344.878906 142.554688 343.796875 Z M 142.554688 343.796875 " fill-opacity="1" fill-rule="nonzero"/></svg>